# xmcd CD database file
#
# Track frame offsets:
#	150
#	17651
#	40594
#	57401
#	82774
#	100787
#	124203
#	151794
#	174386
#	187802
#
# Disc length: 2827 seconds
#
# Revision: 0
# Processed by: cddbd v1.5.2PL0 Copyright (c) Steve Scherf et al.
# Submitted via: CDex 2.18
#
DISCID=680b090a
DTITLE=Polly O'Keary and The Rhythm Method - Black Crow Callin'
DYEAR=2017
DGENRE=Blues
TTITLE0=Hard Hearted World
TTITLE1=A Man Who Can Stand
TTITLE2=Red Light
TTITLE3=Black Crow Callin'
TTITLE4=Yours To Lose
TTITLE5=One Life
TTITLE6=Reconciled
TTITLE7=I Don't Understand
TTITLE8=Plan B
TTITLE9=I Am The One
EXTD=YEAR: 2017
EXTT0=
EXTT1=
EXTT2=
EXTT3=
EXTT4=
EXTT5=
EXTT6=
EXTT7=
EXTT8=
EXTT9=
PLAYORDER=
